<?xml version="1.0" standalone="no"?><svg xmlns="http://www.w3.org/2000/svg" viewBox="0 0 1440 320"><path fill="#000" fill-opacity="1" d="M0,0L24,21.3C48,43,96,85,144,96C192,107,240,85,288,90.7C336,96,384,128,432,138.7C480,149,528,139,576,144C624,149,672,171,720,160C768,149,816,107,864,74.7C912,43,960,21,1008,32C1056,43,1104,85,1152,117.3C1200,149,1248,171,1296,154.7C1344,139,1392,85,1416,58.7L1440,32L1440,320L1416,320C1392,320,1344,320,1296,320C1248,320,1200,320,1152,320C1104,320,1056,320,1008,320C960,320,912,320,864,320C816,320,768,320,720,320C672,320,624,320,576,320C528,320,480,320,432,320C384,320,336,320,288,320C240,320,192,320,144,320C96,320,48,320,24,320L0,320Z"></path></svg>